# xmcd
#
# Track frame offsets:
#	150
#	100079
#	154243
#	189756
#	273396
#
# Disc length: 4445 seconds
#
# Revision: 1
# Processed by: cddbd v1.5.2PL0 Copyright (c) Steve Scherf et al.
# Submitted via: audiograbber 1.83.01
#
DISCID=36115b05
DTITLE=Brian Grainger - Diamond Tears On Slate
DYEAR=2010
DGENRE=Ambient
TTITLE0=Empyrean Crown
TTITLE1=Open Jaws Lined With Jagged Glass Teeth
TTITLE2=Diamond Tears On Slate
TTITLE3=Roman Emerald Orgies
TTITLE4=Pagan Horn
EXTD=
EXTT0=
EXTT1=
EXTT2=
EXTT3=
EXTT4=
PLAYORDER=
